<mxfile host="app.diagrams.net" modified="2021-07-01T16:22:20.947Z" agent="5.0 (Windows NT 10.0; Win64; x64) AppleWebKit/537.36 (KHTML, like Gecko) Chrome/91.0.4472.114 Safari/537.36" etag="7h-7lSm7VwGrim_DNlzd" version="14.8.3" type="github">
  <diagram id="1LbXhNJ8kBHM3-wjjmni" name="Page-1">
    <mxGraphModel dx="785" dy="485" grid="1" gridSize="10" guides="1" tooltips="1" connect="1" arrows="1" fold="1" page="1" pageScale="1" pageWidth="850" pageHeight="1100" math="0" shadow="0">
      <root>
        <mxCell id="0" />
        <mxCell id="1" parent="0" />
        <mxCell id="HyLrxwMPQc86jtI3Abmt-1" value="" style="rounded=0;whiteSpace=wrap;html=1;strokeColor=#b85450;fillColor=#C9872B;" vertex="1" parent="1">
          <mxGeometry x="343" y="520" width="165" height="60" as="geometry" />
        </mxCell>
        <mxCell id="HyLrxwMPQc86jtI3Abmt-2" value="&lt;font color=&quot;#ffffff&quot;&gt;MUSIC APP&lt;/font&gt;" style="text;html=1;align=center;verticalAlign=middle;whiteSpace=wrap;rounded=0;" vertex="1" parent="1">
          <mxGeometry x="388" y="540" width="75" height="20" as="geometry" />
        </mxCell>
      </root>
    </mxGraphModel>
  </diagram>
</mxfile>
